<svg width="120" height="32" viewBox="0 0 120 32" fill="none" xmlns="http://www.w3.org/2000/svg">
<g style="mix-blend-mode:luminosity" opacity="0.3">
<path d="M39.0903 23.3993V20.9248H41.0385V10.9412H39.0903V8.46662H46.7136C47.6171 8.46662 48.4006 8.62306 49.0641 8.93594C49.7417 9.23459 50.264 9.66835 50.6311 10.2372C51.0122 10.7919 51.2028 11.4603 51.2028 12.2425V12.4558C51.2028 13.1384 51.0758 13.7002 50.8217 14.141C50.5676 14.5677 50.264 14.9019 49.9111 15.1437C49.5723 15.3712 49.2476 15.5348 48.937 15.6343V16.0183C49.2476 16.1036 49.5864 16.2672 49.9535 16.5089C50.3205 16.7365 50.6311 17.0707 50.8852 17.5116C51.1534 17.9524 51.2875 18.5284 51.2875 19.2395V19.4528C51.2875 20.2777 51.0969 20.9888 50.7158 21.5861C50.3346 22.1691 49.8052 22.6171 49.1276 22.93C48.4641 23.2429 47.6877 23.3993 46.7983 23.3993H39.0903ZM43.8337 20.8394H46.4595C47.0665 20.8394 47.5536 20.6901 47.9206 20.3914C48.3018 20.0928 48.4923 19.6661 48.4923 19.1115V18.8982C48.4923 18.3435 48.3088 17.9169 47.9418 17.6182C47.5747 17.3196 47.0806 17.1703 46.4595 17.1703H43.8337V20.8394ZM43.8337 14.6104H46.4171C46.9959 14.6104 47.4689 14.461 47.8359 14.1624C48.2171 13.8637 48.4076 13.4513 48.4076 12.9251V12.7118C48.4076 12.1714 48.2241 11.7589 47.8571 11.4745C47.49 11.1758 47.01 11.0265 46.4171 11.0265H43.8337V14.6104Z" fill="#101828"/>
<path d="M57.5992 23.698C56.5545 23.698 55.6157 23.4846 54.7828 23.058C53.9499 22.6314 53.2935 22.0127 52.8135 21.2021C52.3335 20.3914 52.0935 19.4173 52.0935 18.2795V17.9382C52.0935 16.8005 52.3335 15.8263 52.8135 15.0157C53.2935 14.205 53.9499 13.5864 54.7828 13.1598C55.6157 12.7331 56.5545 12.5198 57.5992 12.5198C58.6439 12.5198 59.5827 12.7331 60.4156 13.1598C61.2485 13.5864 61.9049 14.205 62.3849 15.0157C62.8649 15.8263 63.1049 16.8005 63.1049 17.9382V18.2795C63.1049 19.4173 62.8649 20.3914 62.3849 21.2021C61.9049 22.0127 61.2485 22.6314 60.4156 23.058C59.5827 23.4846 58.6439 23.698 57.5992 23.698ZM57.5992 21.3087C58.418 21.3087 59.0956 21.0456 59.6321 20.5194C60.1685 19.979 60.4367 19.2111 60.4367 18.2155V18.0022C60.4367 17.0067 60.1685 16.2458 59.6321 15.7196C59.1097 15.1792 58.4321 14.909 57.5992 14.909C56.7804 14.909 56.1028 15.1792 55.5663 15.7196C55.0299 16.2458 54.7617 17.0067 54.7617 18.0022V18.2155C54.7617 19.2111 55.0299 19.979 55.5663 20.5194C56.1028 21.0456 56.7804 21.3087 57.5992 21.3087Z" fill="#101828"/>
<path d="M64.5089 23.3993V8.46662H67.177V23.3993H64.5089Z" fill="#101828"/>
<path d="M73.0983 23.3993C72.4066 23.3993 71.8419 23.186 71.4042 22.7593C70.9807 22.3185 70.769 21.7354 70.769 21.0101V15.037H68.1432V12.8184H70.769V9.53324H73.4371V12.8184H76.317V15.037H73.4371V20.5408C73.4371 20.9674 73.6347 21.1807 74.03 21.1807H76.0629V23.3993H73.0983Z" fill="#101828"/>
<path d="M82.0356 23.698C80.6662 23.698 79.5439 23.3993 78.6686 22.802C77.7934 22.2047 77.264 21.3514 77.0805 20.2421L79.5369 19.6021C79.6357 20.0999 79.798 20.491 80.0239 20.7754C80.2639 21.0599 80.5533 21.2661 80.8921 21.3941C81.245 21.5078 81.6262 21.5647 82.0356 21.5647C82.6567 21.5647 83.1155 21.4581 83.412 21.2447C83.7085 21.0172 83.8567 20.7399 83.8567 20.4128C83.8567 20.0857 83.7155 19.8368 83.4332 19.6661C83.1508 19.4813 82.6991 19.3319 82.0779 19.2182L81.485 19.1115C80.7509 18.9693 80.0804 18.7773 79.4733 18.5355C78.8663 18.2795 78.3792 17.9311 78.0122 17.4902C77.6452 17.0494 77.4616 16.4805 77.4616 15.7836C77.4616 14.7312 77.8428 13.9277 78.6051 13.3731C79.3674 12.8042 80.3698 12.5198 81.6121 12.5198C82.7838 12.5198 83.7579 12.7829 84.5343 13.3091C85.3108 13.8353 85.819 14.525 86.059 15.3783L83.5814 16.1463C83.4685 15.6059 83.2355 15.2219 82.8826 14.9943C82.5438 14.7668 82.1203 14.653 81.6121 14.653C81.1039 14.653 80.7156 14.7455 80.4474 14.9303C80.1792 15.101 80.0451 15.3428 80.0451 15.6556C80.0451 15.997 80.1862 16.253 80.4686 16.4236C80.7509 16.5801 81.1321 16.7009 81.6121 16.7863L82.205 16.8929C82.9955 17.0351 83.7085 17.2271 84.3437 17.4689C84.9931 17.6965 85.5013 18.0307 85.8684 18.4715C86.2495 18.8982 86.4401 19.4813 86.4401 20.2208C86.4401 21.3301 86.0378 22.1905 85.2331 22.802C84.4425 23.3993 83.3767 23.698 82.0356 23.698Z" fill="#101828"/>
<path d="M87.7194 23.3993V8.46662H90.3876V14.1197H90.7687C90.8817 13.8922 91.0581 13.6646 91.2981 13.4371C91.5381 13.2095 91.8557 13.0247 92.251 12.8824C92.6604 12.726 93.1757 12.6478 93.7968 12.6478C94.6156 12.6478 95.3285 12.8398 95.9356 13.2238C96.5567 13.5935 97.0367 14.1126 97.3755 14.781C97.7143 15.4352 97.8837 16.2032 97.8837 17.0849V23.3993H95.2156V17.2982C95.2156 16.5018 95.018 15.9045 94.6227 15.5063C94.2415 15.1081 93.691 14.909 92.971 14.909C92.1522 14.909 91.5169 15.1863 91.0652 15.741C90.6134 16.2814 90.3876 17.0423 90.3876 18.0235V23.3993H87.7194Z" fill="#101828"/>
<path d="M99.7093 23.3993V12.8184H102.377V23.3993H99.7093ZM101.043 11.5812C100.563 11.5812 100.154 11.4247 99.8152 11.1118C99.4905 10.799 99.3282 10.3865 99.3282 9.87456C99.3282 9.36259 99.4905 8.95016 99.8152 8.63728C100.154 8.32441 100.563 8.16797 101.043 8.16797C101.537 8.16797 101.947 8.32441 102.272 8.63728C102.596 8.95016 102.759 9.36259 102.759 9.87456C102.759 10.3865 102.596 10.799 102.272 11.1118C101.947 11.4247 101.537 11.5812 101.043 11.5812Z" fill="#101828"/>
<path d="M106.012 23.3993V15.037H103.344V12.8184H106.012V10.8559C106.012 10.1306 106.223 9.55458 106.647 9.12793C107.085 8.68706 107.649 8.46662 108.341 8.46662H111.094V10.6852H109.273C108.877 10.6852 108.68 10.8985 108.68 11.3252V12.8184H111.433V15.037H108.68V23.3993H106.012Z" fill="#101828"/>
<path d="M116.256 23.3993C115.564 23.3993 115 23.186 114.562 22.7593C114.139 22.3185 113.927 21.7354 113.927 21.0101V15.037H111.301V12.8184H113.927V9.53324H116.595V12.8184H119.475V15.037H116.595V20.5408C116.595 20.9674 116.793 21.1807 117.188 21.1807H119.221V23.3993H116.256Z" fill="#101828"/>
<path fill-rule="evenodd" clip-rule="evenodd" d="M15.5288 31.9999C24.1052 31.9999 31.0576 24.996 31.0576 16.3562C31.0576 7.71637 24.1052 0.712402 15.5288 0.712402C6.95247 0.712402 0 7.71637 0 16.3562C0 24.996 6.95247 31.9999 15.5288 31.9999ZM20.3733 7.99993C20.6091 7.15612 19.7962 6.65714 19.0539 7.18995L8.69079 14.6272C7.8857 15.205 8.01234 16.3562 8.88102 16.3562H11.6099V16.3349H16.9284L12.5948 17.8753L10.6844 24.7124C10.4486 25.5563 11.2614 26.0552 12.0038 25.5224L22.3669 18.0852C23.172 17.5074 23.0452 16.3562 22.1766 16.3562H18.0384L20.3733 7.99993Z" fill="#155EEF"/>
</g>
</svg>
