<svg width="121" height="32" viewBox="0 0 121 32" fill="none" xmlns="http://www.w3.org/2000/svg">
<g style="mix-blend-mode:luminosity" opacity="0.3">
<path d="M34.5023 9.95703V21.8297H37.0896V16.9243H42.0172V14.8957H37.0896V12.152H42.7753V9.95703H34.5023Z" fill="#101828"/>
<path d="M49.2647 16.6084H45.4578C45.4688 16.4421 45.5018 16.2537 45.5567 16.043C45.6226 15.8324 45.727 15.6329 45.8698 15.4444C46.0236 15.256 46.2214 15.1008 46.4631 14.9788C46.7158 14.8458 47.0289 14.7793 47.4025 14.7793C47.9738 14.7793 48.3968 14.9345 48.6715 15.2449C48.9571 15.5553 49.1549 16.0098 49.2647 16.6084ZM45.4578 18.105H51.6049C51.6489 17.4398 51.5939 16.8024 51.4401 16.1927C51.2863 15.583 51.0336 15.0398 50.682 14.5631C50.3414 14.0864 49.902 13.7095 49.3636 13.4324C48.8253 13.1441 48.1935 13 47.4684 13C46.8202 13 46.2269 13.1164 45.6886 13.3492C45.1612 13.582 44.7052 13.9035 44.3207 14.3137C43.9362 14.7128 43.6395 15.1894 43.4308 15.7437C43.222 16.298 43.1176 16.8966 43.1176 17.5396C43.1176 18.2047 43.2165 18.8144 43.4143 19.3687C43.623 19.923 43.9142 20.3997 44.2877 20.7988C44.6613 21.1979 45.1172 21.5083 45.6556 21.73C46.1939 21.9406 46.7982 22.0459 47.4684 22.0459C48.4352 22.0459 49.2593 21.8242 49.9404 21.3808C50.6216 20.9373 51.127 20.2002 51.4566 19.1692H49.3966C49.3197 19.4352 49.1109 19.6902 48.7703 19.9341C48.4298 20.1669 48.0232 20.2833 47.5508 20.2833C46.8916 20.2833 46.3862 20.1115 46.0346 19.7678C45.6831 19.4242 45.4908 18.8699 45.4578 18.105Z" fill="#101828"/>
<path d="M52.3996 15.8768C52.4325 15.3225 52.5699 14.8624 52.8116 14.4966C53.0533 14.1308 53.3609 13.837 53.7345 13.6153C54.108 13.3936 54.5255 13.2384 54.987 13.1497C55.4594 13.0499 55.9318 13 56.4043 13C56.8327 13 57.2667 13.0333 57.7062 13.0998C58.1457 13.1552 58.5467 13.2716 58.9092 13.449C59.2718 13.6264 59.5684 13.8758 59.7992 14.1973C60.0299 14.5077 60.1453 14.9234 60.1453 15.4444V19.9175C60.1453 20.3055 60.1672 20.6768 60.2112 21.0316C60.2551 21.3863 60.332 21.6524 60.4419 21.8297H58.0688C58.0248 21.6967 57.9864 21.5637 57.9534 21.4307C57.9314 21.2865 57.9149 21.1424 57.904 20.9983C57.5304 21.3863 57.0909 21.6579 56.5855 21.8131C56.0801 21.9683 55.5638 22.0459 55.0364 22.0459C54.6299 22.0459 54.2509 21.996 53.8993 21.8963C53.5477 21.7965 53.2401 21.6413 52.9764 21.4307C52.7127 21.22 52.504 20.954 52.3501 20.6325C52.2073 20.311 52.1359 19.9286 52.1359 19.4851C52.1359 18.9974 52.2183 18.5983 52.3831 18.2879C52.5589 17.9664 52.7786 17.7114 53.0423 17.523C53.317 17.3345 53.6246 17.1959 53.9652 17.1073C54.3168 17.0075 54.6684 16.9299 55.0199 16.8745C55.3715 16.819 55.7176 16.7747 56.0582 16.7414C56.3988 16.7082 56.7009 16.6583 56.9646 16.5918C57.2283 16.5253 57.437 16.431 57.5908 16.3091C57.7446 16.1761 57.8161 15.9876 57.8051 15.7437C57.8051 15.4888 57.7611 15.2892 57.6732 15.1451C57.5963 14.9899 57.4865 14.8735 57.3436 14.7959C57.2118 14.7072 57.0525 14.6518 56.8657 14.6296C56.6899 14.5964 56.4976 14.5797 56.2889 14.5797C55.8275 14.5797 55.4649 14.6795 55.2012 14.8791C54.9375 15.0786 54.7837 15.4112 54.7398 15.8768H52.3996ZM57.8051 17.6227C57.7062 17.7114 57.5798 17.7835 57.426 17.8389C57.2832 17.8833 57.1239 17.9221 56.9481 17.9553C56.7833 17.9886 56.6075 18.0163 56.4207 18.0385C56.234 18.0606 56.0472 18.0883 55.8604 18.1216C55.6846 18.1549 55.5088 18.1992 55.333 18.2546C55.1682 18.3101 55.0199 18.3877 54.8881 18.4874C54.7672 18.5761 54.6683 18.6925 54.5914 18.8366C54.5145 18.9807 54.4761 19.1636 54.4761 19.3854C54.4761 19.596 54.5145 19.7734 54.5914 19.9175C54.6683 20.0616 54.7727 20.178 54.9046 20.2667C55.0364 20.3443 55.1902 20.3997 55.366 20.433C55.5418 20.4662 55.7231 20.4828 55.9099 20.4828C56.3713 20.4828 56.7284 20.4052 56.9811 20.25C57.2338 20.0948 57.4205 19.9119 57.5414 19.7013C57.6622 19.4796 57.7337 19.2579 57.7556 19.0362C57.7886 18.8144 57.8051 18.6371 57.8051 18.5041V17.6227Z" fill="#101828"/>
<path d="M64.4337 13.2328V10.6554H62.0935V13.2328H60.6762V14.8125H62.0935V19.8842C62.0935 20.3165 62.1649 20.6657 62.3078 20.9318C62.4506 21.1979 62.6429 21.4029 62.8846 21.5471C63.1373 21.6912 63.4229 21.7854 63.7415 21.8297C64.0711 21.8852 64.4172 21.9129 64.7798 21.9129C65.0105 21.9129 65.2467 21.9073 65.4884 21.8963C65.7301 21.8852 65.9499 21.863 66.1476 21.8297V20.0006C66.0378 20.0228 65.9224 20.0394 65.8016 20.0505C65.6807 20.0616 65.5543 20.0671 65.4225 20.0671C65.027 20.0671 64.7633 20.0006 64.6315 19.8676C64.4996 19.7346 64.4337 19.4685 64.4337 19.0694V14.8125H66.1476V13.2328H64.4337Z" fill="#101828"/>
<path d="M66.7667 9.95703V21.8297H69.1069V17.3234C69.1069 16.4477 69.2497 15.8213 69.5353 15.4444C69.821 15.0564 70.2824 14.8624 70.9197 14.8624C71.48 14.8624 71.87 15.0398 72.0898 15.3945C72.3095 15.7382 72.4194 16.2648 72.4194 16.9742V21.8297H74.7595V16.5419C74.7595 16.0098 74.7101 15.5276 74.6112 15.0952C74.5233 14.6518 74.364 14.2804 74.1333 13.9811C73.9026 13.6707 73.584 13.4324 73.1775 13.2661C72.7819 13.0887 72.271 13 71.6448 13C71.2053 13 70.7549 13.1164 70.2934 13.3492C69.832 13.5709 69.4529 13.9312 69.1563 14.4301H69.1069V9.95703H66.7667Z" fill="#101828"/>
<path d="M81.7764 16.6084H77.9694C77.9804 16.4421 78.0134 16.2537 78.0683 16.043C78.1343 15.8324 78.2386 15.6329 78.3815 15.4444C78.5353 15.256 78.733 15.1008 78.9747 14.9788C79.2274 14.8458 79.5406 14.7793 79.9141 14.7793C80.4854 14.7793 80.9084 14.9345 81.1831 15.2449C81.4687 15.5553 81.6665 16.0098 81.7764 16.6084ZM77.9694 18.105H84.1165C84.1605 17.4398 84.1056 16.8024 83.9517 16.1927C83.7979 15.583 83.5452 15.0398 83.1937 14.5631C82.8531 14.0864 82.4136 13.7095 81.8752 13.4324C81.3369 13.1441 80.7052 13 79.98 13C79.3318 13 78.7385 13.1164 78.2002 13.3492C77.6728 13.582 77.2169 13.9035 76.8323 14.3137C76.4478 14.7128 76.1511 15.1894 75.9424 15.7437C75.7336 16.298 75.6293 16.8966 75.6293 17.5396C75.6293 18.2047 75.7281 18.8144 75.9259 19.3687C76.1347 19.923 76.4258 20.3997 76.7994 20.7988C77.1729 21.1979 77.6289 21.5083 78.1672 21.73C78.7056 21.9406 79.3098 22.0459 79.98 22.0459C80.9469 22.0459 81.7709 21.8242 82.452 21.3808C83.1332 20.9373 83.6386 20.2002 83.9682 19.1692H81.9082C81.8313 19.4352 81.6225 19.6902 81.282 19.9341C80.9414 20.1669 80.5349 20.2833 80.0624 20.2833C79.4032 20.2833 78.8978 20.1115 78.5462 19.7678C78.1947 19.4242 78.0024 18.8699 77.9694 18.105Z" fill="#101828"/>
<path d="M85.0101 13.2328V21.8297H87.3503V17.9553C87.3503 17.5673 87.3887 17.207 87.4656 16.8745C87.5425 16.5419 87.6689 16.2537 87.8447 16.0098C88.0314 15.7548 88.2731 15.5553 88.5698 15.4112C88.8664 15.267 89.229 15.195 89.6575 15.195C89.8003 15.195 89.9486 15.2061 90.1024 15.2282C90.2563 15.2393 90.3881 15.256 90.498 15.2781V13.0832C90.3112 13.0278 90.1409 13 89.9871 13C89.6904 13 89.4048 13.0444 89.1301 13.1331C88.8554 13.2217 88.5973 13.3492 88.3555 13.5155C88.1138 13.6707 87.8996 13.8647 87.7128 14.0975C87.5261 14.3192 87.3777 14.5631 87.2679 14.8292H87.2349V13.2328H85.0101Z" fill="#101828"/>
<path d="M93.7556 19.6348V12.152H95.6014C96.2386 12.152 96.7715 12.2462 97.2 12.4347C97.6395 12.612 97.991 12.8726 98.2547 13.2162C98.5184 13.5599 98.7052 13.9756 98.815 14.4633C98.9359 14.94 98.9963 15.4777 98.9963 16.0763C98.9963 16.7303 98.9139 17.2846 98.7491 17.7391C98.5843 18.1937 98.3646 18.565 98.0899 18.8532C97.8152 19.1304 97.5021 19.3299 97.1505 19.4519C96.799 19.5738 96.4364 19.6348 96.0629 19.6348H93.7556ZM91.1683 9.95703V21.8297H96.2441C97.1451 21.8297 97.9251 21.6801 98.5843 21.3808C99.2545 21.0704 99.8093 20.6491 100.249 20.117C100.699 19.5849 101.034 18.953 101.254 18.2214C101.474 17.4897 101.584 16.6915 101.584 15.8269C101.584 14.8403 101.446 13.9811 101.172 13.2495C100.908 12.5178 100.534 11.9081 100.051 11.4203C99.5786 10.9326 99.0128 10.5667 98.3536 10.3229C97.7054 10.079 97.0022 9.95703 96.2441 9.95703H91.1683Z" fill="#101828"/>
<path d="M108.377 16.6084H104.57C104.581 16.4421 104.614 16.2537 104.669 16.043C104.735 15.8324 104.839 15.6329 104.982 15.4444C105.136 15.256 105.334 15.1008 105.575 14.9788C105.828 14.8458 106.141 14.7793 106.515 14.7793C107.086 14.7793 107.509 14.9345 107.784 15.2449C108.069 15.5553 108.267 16.0098 108.377 16.6084ZM104.57 18.105H110.717C110.761 17.4398 110.706 16.8024 110.552 16.1927C110.399 15.583 110.146 15.0398 109.794 14.5631C109.454 14.0864 109.014 13.7095 108.476 13.4324C107.938 13.1441 107.306 13 106.581 13C105.932 13 105.339 13.1164 104.801 13.3492C104.273 13.582 103.817 13.9035 103.433 14.3137C103.048 14.7128 102.752 15.1894 102.543 15.7437C102.334 16.298 102.23 16.8966 102.23 17.5396C102.23 18.2047 102.329 18.8144 102.527 19.3687C102.735 19.923 103.026 20.3997 103.4 20.7988C103.774 21.1979 104.229 21.5083 104.768 21.73C105.306 21.9406 105.91 22.0459 106.581 22.0459C107.548 22.0459 108.372 21.8242 109.053 21.3808C109.734 20.9373 110.239 20.2002 110.569 19.1692H108.509C108.432 19.4352 108.223 19.6902 107.883 19.9341C107.542 20.1669 107.136 20.2833 106.663 20.2833C106.004 20.2833 105.498 20.1115 105.147 19.7678C104.795 19.4242 104.603 18.8699 104.57 18.105Z" fill="#101828"/>
<path d="M116.324 21.8297L119.208 13.2328H116.884L115.088 19.1027H115.055L113.259 13.2328H110.803L113.72 21.8297H116.324Z" fill="#101828"/>
<path d="M23.7417 7.78718C23.4782 7.52174 23.2147 7.2563 22.9512 6.99085C22.1607 6.14143 21.3176 5.29201 20.2636 4.76112C19.0515 4.12406 17.7341 4.28332 16.4166 4.28332C14.4141 4.28332 9.40772 4.28332 6.4566 4.28332L8.45915 6.99085C12.0953 6.99085 17.7868 6.99085 20.4217 6.99085C21.5284 6.99085 22.4769 7.20321 23.3728 7.78718C23.5309 7.84027 23.689 7.84027 23.7417 7.78718Z" fill="#66C61C"/>
<path d="M25.9548 12.1407C25.6913 11.8752 25.4279 11.6098 25.1644 11.3444C24.3739 10.4949 23.5307 9.64552 22.4768 9.11463C21.2647 8.47757 19.9472 8.63684 18.6298 8.63684C16.8907 8.63684 12.7275 8.63684 9.77643 8.63684L11.779 11.3444C15.3625 11.3444 20.2634 11.3444 22.6875 11.3444C23.7942 11.3444 24.7428 11.5567 25.6387 12.1407C25.7441 12.1938 25.8494 12.1938 25.9548 12.1407Z" fill="#4CA30D"/>
<path d="M28.4314 16.3887C28.1679 16.1233 27.9045 15.8579 27.641 15.5924C26.8505 14.743 26.0073 13.8936 24.9533 13.3627C23.7413 12.7256 22.4238 12.8849 21.1063 12.8849C19.4727 12.8849 15.8892 12.8849 12.9908 12.8849L14.9933 15.5924C18.4714 15.5924 22.8981 15.5924 25.1114 15.5924C26.2181 15.5924 27.1667 15.8048 28.0625 16.3887C28.2206 16.4418 28.326 16.4949 28.4314 16.3887Z" fill="#3B7C0F"/>
<path d="M6.24542 23.5535C6.50891 23.8189 6.77241 24.0844 7.0359 24.3498C7.82638 25.1992 8.66955 26.0487 9.72351 26.5795C10.9356 27.2166 12.253 27.0573 13.5705 27.0573H23.5305L21.528 24.3498C17.8918 24.3498 12.2003 24.3498 9.56543 24.3498C8.45876 24.3498 7.51018 24.1375 6.61431 23.5535C6.45621 23.5004 6.35082 23.5004 6.24542 23.5535Z" fill="#66C61C"/>
<path d="M4.03253 19.2039C4.29602 19.4693 4.55952 19.7348 4.82301 20.0002C5.61348 20.8496 6.45665 21.6991 7.51062 22.2299C8.72269 22.867 10.0401 22.7077 11.3576 22.7077H20.2109L18.2084 20.0002C14.6249 20.0002 9.72396 20.0002 7.29983 20.0002C6.19317 20.0002 5.24459 19.7879 4.34872 19.2039C4.24332 19.1508 4.13793 19.1508 4.03253 19.2039Z" fill="#4CA30D"/>
<path d="M1.60822 14.8992C1.87171 15.1646 2.1352 15.4301 2.39869 15.6955C3.18917 16.5449 4.03235 17.3944 5.08632 17.9253C6.29838 18.5623 7.61584 18.4031 8.9333 18.4031H17.0489L15.0463 15.6955C11.5682 15.6955 7.14156 15.6955 4.92822 15.6955C3.82155 15.6955 2.87298 15.4832 1.9771 14.8992C1.81901 14.8461 1.71361 14.8461 1.60822 14.8992Z" fill="#3B7C0F"/>
</g>
</svg>
