<svg width="121" height="32" viewBox="0 0 121 32" fill="none" xmlns="http://www.w3.org/2000/svg">
<g style="mix-blend-mode:luminosity" opacity="0.3">
<path d="M40.1074 23.4681C41.7272 23.4681 43.0589 22.6179 43.4729 21.3426V23.3203H45.8665V18.3299C45.8665 17.2024 45.0026 16.2413 43.8328 16.2413H40.4134V18.3299H42.843C43.1489 18.3299 43.3469 18.5332 43.3469 18.8474C43.3469 20.0488 41.7992 21.2132 40.2334 21.2132C38.1458 21.2132 36.4901 19.5312 36.4901 16.8512C36.4901 14.1712 38.1458 12.6186 40.2874 12.6186C41.9071 12.6186 43.023 13.5243 43.2209 14.9105H45.9025C45.7405 12.138 43.4729 10.2343 40.3054 10.2343C36.976 10.2343 33.9165 12.4338 33.9165 16.8512C33.9165 21.2687 36.886 23.4681 40.1074 23.4681Z" fill="#101828"/>
<path d="M46.894 23.3203H49.3956V9.95703H46.894V23.3203Z" fill="#101828"/>
<path d="M54.7917 23.4681C57.5812 23.4681 59.5789 21.435 59.5789 18.6625C59.5789 15.8901 57.5812 13.857 54.7917 13.857C52.0022 13.857 50.0045 15.8901 50.0045 18.6625C50.0045 21.435 52.0022 23.4681 54.7917 23.4681ZM54.7917 21.2502C53.4419 21.2502 52.5241 20.1966 52.5241 18.6625C52.5241 17.11 53.4419 16.0564 54.7917 16.0564C56.1415 16.0564 57.0593 17.11 57.0593 18.6625C57.0593 20.1966 56.1415 21.2502 54.7917 21.2502Z" fill="#101828"/>
<path d="M65.1765 23.4681C67.858 23.4681 69.4597 21.5644 69.4597 18.6625C69.4597 15.7607 67.858 13.857 65.2125 13.857C64.0787 13.857 63.1968 14.3005 62.6929 14.9844V9.95703H60.1913V23.3203H62.6929V22.3037C63.1968 23.0245 64.1327 23.4681 65.1765 23.4681ZM64.7805 21.2502C63.4308 21.2502 62.5489 20.2151 62.5489 18.6625C62.5489 17.0915 63.4308 16.0564 64.7805 16.0564C66.0943 16.0564 66.9942 17.0915 66.9942 18.6625C66.9942 20.2151 66.0943 21.2502 64.7805 21.2502Z" fill="#101828"/>
<path d="M73.6473 13.857C71.1637 13.857 69.6879 15.3541 69.58 17.2209H71.8116C71.8476 16.4446 72.4055 15.7422 73.5033 15.7422C74.5291 15.7422 75.123 16.2782 75.123 17.0545C75.123 17.4427 74.8891 17.7384 74.4391 17.7384H72.9094C70.9297 17.7384 69.598 18.8474 69.598 20.6772C69.598 22.2667 70.8038 23.4681 72.5675 23.4681C73.8092 23.4681 74.8171 22.8952 75.123 22.0265V23.3203H77.6066V17.3318C77.6066 15.2247 75.9329 13.857 73.6473 13.857ZM73.1973 21.6014C72.4955 21.6014 71.9916 21.1762 71.9916 20.5663C71.9916 19.8455 72.5315 19.3649 73.2873 19.3649H75.123V19.4943C75.123 20.6772 74.4211 21.6014 73.1973 21.6014Z" fill="#101828"/>
<path d="M78.5679 23.3203H81.0695V9.95703H78.5679V23.3203Z" fill="#101828"/>
<path d="M82.3983 23.3203H87.5454C90.2089 23.3203 92.0446 21.9156 92.0446 19.4573C92.0446 17.7569 91.0728 16.7218 89.921 16.2597C90.6589 15.8531 91.3967 14.929 91.3967 13.7091C91.3967 11.5466 89.687 10.3821 87.4014 10.3821H82.3983V23.3203ZM85.0618 15.3171V12.5816H87.1495C88.3553 12.5816 88.8952 13.0807 88.8952 13.9494C88.8952 14.8181 88.3553 15.3171 87.2035 15.3171H85.0618ZM85.0618 20.9175V17.6645H87.3114C88.8052 17.6645 89.4711 18.2559 89.4711 19.3095C89.4711 20.363 88.8052 20.9175 87.3114 20.9175H85.0618Z" fill="#101828"/>
<path d="M96.3965 13.857C93.9129 13.857 92.4372 15.3541 92.3292 17.2209H94.5608C94.5968 16.4446 95.1547 15.7422 96.2525 15.7422C97.2784 15.7422 97.8723 16.2782 97.8723 17.0545C97.8723 17.4427 97.6383 17.7384 97.1884 17.7384H95.6586C93.679 17.7384 92.3472 18.8474 92.3472 20.6772C92.3472 22.2667 93.553 23.4681 95.3167 23.4681C96.5585 23.4681 97.5663 22.8952 97.8723 22.0265V23.3203H100.356V17.3318C100.356 15.2247 98.6821 13.857 96.3965 13.857ZM95.9466 21.6014C95.2447 21.6014 94.7408 21.1762 94.7408 20.5663C94.7408 19.8455 95.2807 19.3649 96.0366 19.3649H97.8723V19.4943C97.8723 20.6772 97.1704 21.6014 95.9466 21.6014Z" fill="#101828"/>
<path d="M101.173 23.3203H103.693V18.219C103.693 17.0176 104.467 16.1489 105.564 16.1489C106.608 16.1489 107.31 16.9621 107.31 18.0896V23.3203H109.83V17.5166C109.83 15.3726 108.498 13.857 106.446 13.857C105.204 13.857 104.197 14.393 103.693 15.2986V14.0048H101.173V23.3203Z" fill="#101828"/>
<path d="M117.011 23.3203H120.034L116.129 17.6645L119.746 14.0048H116.579L113.429 17.1839V9.95703H110.91V23.3203H113.429V20.4L114.437 19.3834L117.011 23.3203Z" fill="#101828"/>
<path d="M20.1247 2.13477H9.30687L0.598145 10.908V21.806L9.30687 30.5792H20.1247L28.8334 21.806V10.908L20.1247 2.13477ZM10.8037 21.9431L5.22466 16.3227L10.8037 10.7024C12.9128 8.5776 16.3827 8.5776 18.4918 10.7024L24.0708 16.3227L18.4918 21.9431C16.3827 24.0678 12.9808 24.0678 10.8037 21.9431Z" fill="#444CE7"/>
</g>
</svg>
