<svg width="120" height="32" viewBox="0 0 120 32" fill="none" xmlns="http://www.w3.org/2000/svg">
<g style="mix-blend-mode:luminosity" opacity="0.3">
<path d="M40.4408 18.5323H44.71V21.0667H37.1818V7.5883H40.4408V18.5323Z" fill="#101828"/>
<path d="M47.713 9.2395C47.1412 9.2395 46.6711 9.0731 46.3026 8.7403C45.9468 8.3947 45.769 7.9723 45.769 7.4731C45.769 6.9611 45.9468 6.5387 46.3026 6.2059C46.6711 5.8603 47.1412 5.6875 47.713 5.6875C48.272 5.6875 48.7294 5.8603 49.0852 6.2059C49.4537 6.5387 49.6379 6.9611 49.6379 7.4731C49.6379 7.9723 49.4537 8.3947 49.0852 8.7403C48.7294 9.0731 48.272 9.2395 47.713 9.2395ZM49.333 10.3531V21.0667H46.0739V10.3531H49.333Z" fill="#101828"/>
<path d="M55.5446 10.1995C56.2943 10.1995 56.9486 10.3531 57.5077 10.6603C58.0795 10.9675 58.5178 11.3707 58.8228 11.8699V10.3531H62.0818V21.0475C62.0818 22.0331 61.8849 22.9227 61.491 23.7163C61.1098 24.5227 60.519 25.1627 59.7185 25.6363C58.9308 26.1099 57.9461 26.3467 56.7644 26.3467C55.1889 26.3467 53.9119 25.9691 52.9336 25.2139C51.9552 24.4715 51.3962 23.4603 51.2564 22.1803H54.4774C54.579 22.5899 54.8204 22.9099 55.2016 23.1403C55.5828 23.3835 56.0529 23.5051 56.6119 23.5051C57.2854 23.5051 57.819 23.3067 58.2129 22.9099C58.6195 22.5259 58.8228 21.9051 58.8228 21.0475V19.5307C58.5051 20.0299 58.0668 20.4395 57.5077 20.7595C56.9486 21.0667 56.2943 21.2203 55.5446 21.2203C54.6679 21.2203 53.8738 20.9963 53.1623 20.5483C52.4508 20.0875 51.8854 19.4411 51.4661 18.6091C51.0595 17.7643 50.8562 16.7915 50.8562 15.6907C50.8562 14.5899 51.0595 13.6235 51.4661 12.7915C51.8854 11.9595 52.4508 11.3195 53.1623 10.8715C53.8738 10.4235 54.6679 10.1995 55.5446 10.1995ZM58.8228 15.7099C58.8228 14.8907 58.5941 14.2443 58.1366 13.7707C57.6919 13.2971 57.1456 13.0603 56.4976 13.0603C55.8496 13.0603 55.2969 13.2971 54.8395 13.7707C54.3948 14.2315 54.1724 14.8715 54.1724 15.6907C54.1724 16.5099 54.3948 17.1627 54.8395 17.6491C55.2969 18.1227 55.8496 18.3595 56.4976 18.3595C57.1456 18.3595 57.6919 18.1227 58.1366 17.6491C58.5941 17.1755 58.8228 16.5291 58.8228 15.7099Z" fill="#101828"/>
<path d="M70.7862 10.2379C72.006 10.2379 72.9843 10.6475 73.7213 11.4667C74.4582 12.2731 74.8267 13.3867 74.8267 14.8075V21.0667H71.5867V15.2491C71.5867 14.5323 71.4024 13.9755 71.034 13.5787C70.6655 13.1819 70.17 12.9835 69.5474 12.9835C68.9248 12.9835 68.4293 13.1819 68.0608 13.5787C67.6923 13.9755 67.5081 14.5323 67.5081 15.2491V21.0667H64.249V6.8587H67.5081V11.7931C67.8384 11.3195 68.2895 10.9419 68.8613 10.6603C69.433 10.3787 70.0747 10.2379 70.7862 10.2379Z" fill="#101828"/>
<path d="M82.8281 18.2827V21.0667H81.17C79.9883 21.0667 79.0672 20.7787 78.4065 20.2027C77.7457 19.6139 77.4154 18.6603 77.4154 17.3419V13.0795H76.1194V10.3531H77.4154V7.7419H80.6745V10.3531H82.809V13.0795H80.6745V17.3803C80.6745 17.7003 80.7507 17.9307 80.9032 18.0715C81.0556 18.2123 81.3098 18.2827 81.6655 18.2827H82.8281Z" fill="#101828"/>
<path d="M87.7119 11.8699C88.0169 11.3707 88.4552 10.9675 89.027 10.6603C89.5988 10.3531 90.2531 10.1995 90.99 10.1995C91.8668 10.1995 92.6609 10.4235 93.3724 10.8715C94.0839 11.3195 94.643 11.9595 95.0496 12.7915C95.4689 13.6235 95.6785 14.5899 95.6785 15.6907C95.6785 16.7915 95.4689 17.7643 95.0496 18.6091C94.643 19.4411 94.0839 20.0875 93.3724 20.5483C92.6609 20.9963 91.8668 21.2203 90.99 21.2203C90.2404 21.2203 89.586 21.0731 89.027 20.7787C88.4679 20.4715 88.0296 20.0683 87.7119 19.5691V21.0667H84.4529V6.8587H87.7119V11.8699ZM92.3623 15.6907C92.3623 14.8715 92.1336 14.2315 91.6762 13.7707C91.2315 13.2971 90.6788 13.0603 90.018 13.0603C89.37 13.0603 88.8173 13.2971 88.3599 13.7707C87.9152 14.2443 87.6929 14.8907 87.6929 15.7099C87.6929 16.5291 87.9152 17.1755 88.3599 17.6491C88.8173 18.1227 89.37 18.3595 90.018 18.3595C90.666 18.3595 91.2188 18.1227 91.6762 17.6491C92.1336 17.1627 92.3623 16.5099 92.3623 15.6907Z" fill="#101828"/>
<path d="M102.039 21.2203C100.997 21.2203 100.057 20.9963 99.2179 20.5483C98.3921 20.1003 97.7377 19.4603 97.2549 18.6283C96.7848 17.7963 96.5497 16.8235 96.5497 15.7099C96.5497 14.6091 96.7911 13.6427 97.2739 12.8107C97.7568 11.9659 98.4175 11.3195 99.2561 10.8715C100.095 10.4235 101.035 10.1995 102.077 10.1995C103.119 10.1995 104.059 10.4235 104.897 10.8715C105.736 11.3195 106.397 11.9659 106.88 12.8107C107.362 13.6427 107.604 14.6091 107.604 15.7099C107.604 16.8107 107.356 17.7835 106.861 18.6283C106.378 19.4603 105.711 20.1003 104.859 20.5483C104.021 20.9963 103.081 21.2203 102.039 21.2203ZM102.039 18.3787C102.661 18.3787 103.189 18.1483 103.621 17.6875C104.065 17.2267 104.288 16.5675 104.288 15.7099C104.288 14.8523 104.072 14.1931 103.64 13.7323C103.22 13.2715 102.699 13.0411 102.077 13.0411C101.441 13.0411 100.914 13.2715 100.495 13.7323C100.076 14.1803 99.866 14.8395 99.866 15.7099C99.866 16.5675 100.069 17.2267 100.476 17.6875C100.895 18.1483 101.416 18.3787 102.039 18.3787Z" fill="#101828"/>
<path d="M115.432 21.0667L113.392 18.0907L111.677 21.0667H108.151L111.658 15.5947L108.056 10.3531H111.715L113.754 13.3099L115.47 10.3531H118.996L115.432 15.7483L119.091 21.0667H115.432Z" fill="#101828"/>
<path fill-rule="evenodd" clip-rule="evenodd" d="M15.3639 1.47825C15.0074 1.40439 14.6397 1.40439 14.2832 1.47825C13.8711 1.56363 13.5027 1.77146 13.2099 1.93669L13.1301 1.98161L3.20576 7.53597C3.17833 7.55132 3.15005 7.56701 3.12108 7.58309C2.81111 7.75508 2.42136 7.97135 2.12205 8.29854C1.86328 8.58143 1.66745 8.91671 1.54765 9.28198C1.40909 9.70445 1.41071 10.1527 1.412 10.5092C1.41212 10.5425 1.41224 10.575 1.41224 10.6067V21.5734C1.41224 21.605 1.41212 21.6375 1.412 21.6708C1.41071 22.0273 1.40909 22.4756 1.54765 22.8981C1.66745 23.2633 1.86328 23.5986 2.12205 23.8815C2.42136 24.2087 2.81111 24.425 3.12109 24.597C3.15006 24.613 3.17833 24.6287 3.20577 24.6441L13.1301 30.1984L13.2099 30.2433C13.5028 30.4086 13.8711 30.6164 14.2832 30.7018C14.6397 30.7756 15.0074 30.7756 15.3639 30.7018C15.7759 30.6164 16.1443 30.4086 16.4371 30.2433L16.5169 30.1984L26.4413 24.6441C26.4534 24.6373 26.4657 24.6304 26.4781 24.6235C26.4938 24.6148 26.5098 24.6059 26.5259 24.597C26.8359 24.425 27.2257 24.2087 27.525 23.8815C27.7837 23.5986 27.9796 23.2633 28.0994 22.8981C28.2379 22.4756 28.2363 22.0273 28.235 21.6708C28.2349 21.6375 28.2348 21.605 28.2348 21.5734V10.6067C28.2348 10.575 28.2349 10.5425 28.235 10.5092C28.2363 10.1527 28.2379 9.70445 28.0994 9.28197C27.9796 8.91671 27.7837 8.58143 27.525 8.29854C27.2257 7.97134 26.8359 7.75508 26.5259 7.58308L26.5248 7.58247C26.4962 7.56661 26.4683 7.55112 26.4413 7.53596L16.5169 1.9816L16.4371 1.93668C16.1443 1.77146 15.7759 1.56363 15.3639 1.47825ZM14.4327 4.34368C14.636 4.22994 14.7397 4.17247 14.8171 4.13486L14.8235 4.13177L14.8299 4.13486C14.9073 4.17246 15.0111 4.22994 15.2143 4.34368L24.132 9.33468L14.8235 14.5444L5.51493 9.33471L14.4327 4.34368ZM4.09449 11.6308L13.4823 16.8849L13.4824 27.3045L4.50838 22.282C4.29387 22.1619 4.18434 22.1 4.1075 22.0507L4.10101 22.0465L4.10053 22.0387C4.09505 21.9471 4.09449 21.8206 4.09449 21.5734V11.6308Z" fill="#101828"/>
</g>
</svg>
