<svg width="121" height="32" viewBox="0 0 121 32" fill="none" xmlns="http://www.w3.org/2000/svg">
<g style="mix-blend-mode:luminosity" opacity="0.3">
<path d="M45.1196 9.24609V19.3776L38.6727 9.24609H36.094V23.2344H38.6727V13.1828L45.1196 23.2344H47.6983V9.24609H45.1196Z" fill="#101828"/>
<path d="M48.8603 11.8639H51.5183V9.24609H48.8603V11.8639ZM48.8999 23.2344V13.2428H51.4787V23.2344H48.8999Z" fill="#101828"/>
<path d="M62.5739 18.2386C62.5739 14.7815 60.134 13.1428 57.5553 13.1229C54.9567 13.1029 52.5565 14.7815 52.5565 18.2386C52.5565 21.6957 54.9567 23.3743 57.5553 23.3543C59.9158 23.3343 61.5424 22.2353 62.2962 20.4168L60.2927 19.5775C59.6778 20.8164 58.7058 21.2561 57.5553 21.2761C56.5635 21.296 55.4328 20.8164 55.1947 19.0379H62.5144C62.554 18.7781 62.5739 18.5184 62.5739 18.2386ZM57.5553 15.1811C58.5471 15.2011 59.5588 15.7407 59.8761 17.1795H55.2344C55.5716 15.7207 56.5833 15.1612 57.5553 15.1811Z" fill="#101828"/>
<path d="M68.5335 15.1012V13.1229H66.9069V10.4451L64.3282 11.2444V13.1229H62.7016V15.1012H64.3282V20.2769C64.3282 22.2353 64.4869 23.2344 67.502 23.2344H68.1963V20.9563H67.502C67.0259 20.9563 66.9069 20.8764 66.9069 20.2769V15.1012H68.5335Z" fill="#101828"/>
<path d="M72.3653 21.0562L77.8402 15.4209V13.2428H69.6279V15.4209H74.944L69.4692 21.0562V23.2344H77.8997V21.0562H72.3653Z" fill="#101828"/>
<path d="M78.8242 20.4168L81.4228 20.0171C81.6013 21.0163 82.7717 21.396 83.4858 21.396C84.2197 21.396 85.4893 21.2361 85.4893 20.0371C85.4893 17.699 79.1218 20.6166 79.1218 16.1403C79.1218 13.2627 82.4345 13.1029 83.4858 13.1029C84.4776 13.1029 87.3539 13.2627 87.949 15.5808L85.4893 16.1004C85.2711 15.0413 84.1602 14.8414 83.5651 14.8414C82.97 14.8414 81.7005 14.9813 81.7005 16.1403C81.7005 18.4584 88.068 15.5009 88.068 20.0371C88.068 23.0945 84.5768 23.3543 83.4858 23.3543C82.494 23.3543 79.34 23.0945 78.8242 20.4168Z" fill="#101828"/>
<path d="M91.418 18.2386C91.418 20.6766 92.7074 21.4159 94.0563 21.396C95.2663 21.376 96.0994 20.8764 96.5953 19.4776L98.7178 20.5167C97.9442 22.555 96.0597 23.3343 94.0563 23.3543C91.4577 23.3743 88.8393 21.6957 88.8393 18.2386C88.8393 14.7815 91.4577 13.1029 94.0563 13.1229C96.0597 13.1428 97.9442 13.9222 98.7178 15.9605L96.5953 16.9996C96.0994 15.6008 95.2663 15.1012 94.0563 15.0812C92.7074 15.0612 91.418 15.8006 91.418 18.2386Z" fill="#101828"/>
<path d="M105.641 13.0829C104.312 13.0829 103.102 13.7823 102.328 15.2811V9.24609H99.7492V23.2344H102.328V19.6974C102.328 15.1212 104.212 14.7415 104.907 14.7415C106.017 14.7415 106.176 15.9005 106.176 17.5991V23.2344H108.755V17.5991C108.755 15.4809 108.418 13.0829 105.641 13.0829Z" fill="#101828"/>
<path d="M119.642 18.2386C119.642 14.7815 117.202 13.1428 114.624 13.1229C112.025 13.1029 109.625 14.7815 109.625 18.2386C109.625 21.6957 112.025 23.3743 114.624 23.3543C116.984 23.3343 118.611 22.2353 119.365 20.4168L117.361 19.5775C116.746 20.8164 115.774 21.2561 114.624 21.2761C113.632 21.296 112.501 20.8164 112.263 19.0379H119.583C119.622 18.7781 119.642 18.5184 119.642 18.2386ZM114.624 15.1811C115.615 15.2011 116.627 15.7407 116.945 17.1795H112.303C112.64 15.7207 113.652 15.1612 114.624 15.1811Z" fill="#101828"/>
<path d="M19.0953 3.55764L16.4489 2.8457L14.2187 11.202L12.2053 3.65788L9.55877 4.36983L11.7342 12.5207L6.31576 7.08075L4.37843 9.02581L10.3217 14.9929L2.92029 13.0017L2.21118 15.6587L10.2982 17.8343C10.2056 17.4333 10.1566 17.0156 10.1566 16.5863C10.1566 13.5479 12.6099 11.0848 15.6362 11.0848C18.6626 11.0848 21.1159 13.5479 21.1159 16.5863C21.1159 17.0128 21.0675 17.428 20.976 17.8266L28.3256 19.8037L29.0347 17.1467L20.9155 14.9625L28.3175 12.9713L27.6083 10.3143L19.4895 12.4984L24.9079 7.05842L22.9706 5.11336L17.1097 10.9976L19.0953 3.55764Z" fill="#FF4405"/>
<path d="M20.9683 17.8575C20.7414 18.8206 20.2624 19.6858 19.6051 20.3789L24.9296 25.7247L26.8669 23.7796L20.9683 17.8575Z" fill="#FF4405"/>
<path d="M19.5514 20.4348C18.8862 21.1169 18.0455 21.626 17.1028 21.8883L19.0403 29.1478L21.6867 28.4359L19.5514 20.4348Z" fill="#FF4405"/>
<path d="M17.004 21.9149C16.5666 22.0277 16.1082 22.0877 15.6358 22.0877C15.1296 22.0877 14.6395 22.0188 14.1742 21.8899L12.235 29.156L14.8814 29.8679L17.004 21.9149Z" fill="#FF4405"/>
<path d="M14.0807 21.8631C13.1524 21.5877 12.3267 21.0722 11.6751 20.3881L6.33751 25.747L8.27484 27.692L14.0807 21.8631Z" fill="#FF4405"/>
<path d="M11.6311 20.3408C10.9906 19.6524 10.5241 18.7987 10.3021 17.8505L2.92849 19.8342L3.6376 22.4911L11.6311 20.3408Z" fill="#FF4405"/>
</g>
</svg>
