<svg width="121" height="32" viewBox="0 0 121 32" fill="none" xmlns="http://www.w3.org/2000/svg">
<g style="mix-blend-mode:luminosity" opacity="0.3">
<path d="M44.8472 21.5639C48.232 21.5639 50.5173 19.783 50.5173 16.9378C50.5173 10.9217 42.5835 13.4845 42.5835 10.3136C42.5835 9.42313 43.3812 8.815 44.6532 8.815C46.0976 8.815 47.0031 9.59688 47.1109 10.7914H50.1939C50.1076 7.90281 47.9086 6.01328 44.6532 6.01328C41.5918 6.01328 39.4359 7.79422 39.4359 10.3136C39.4359 16.2863 47.2618 14.0058 47.2618 16.9813C47.2618 18.1324 46.2917 18.7405 44.8472 18.7405C43.2518 18.7405 42.2386 17.7631 42.1092 16.2211H39.0047C39.1341 19.4572 41.4193 21.5639 44.8472 21.5639Z" fill="#101828"/>
<path d="M51.2504 25.8208H54.2471V20.4128C54.8292 21.1513 55.8856 21.5639 57.1145 21.5639C60.2406 21.5639 62.3534 19.3269 62.3534 15.917C62.3534 12.5072 60.413 10.2702 57.3732 10.2702C55.9719 10.2702 54.8939 10.7914 54.2471 11.6384V10.4439H51.2504V25.8208ZM56.748 18.9577C55.1311 18.9577 54.0747 17.7414 54.0747 15.917C54.0747 14.0709 55.1311 12.8547 56.748 12.8547C58.3218 12.8547 59.3998 14.0709 59.3998 15.917C59.3998 17.7414 58.3218 18.9577 56.748 18.9577Z" fill="#101828"/>
<path d="M63.0784 21.3902H66.0752V15.3958C66.0752 13.9841 67.0022 12.9633 68.3173 12.9633C69.5677 12.9633 70.4301 13.9189 70.4301 15.2438V21.3902H73.4268V14.5705C73.4268 12.0511 71.8314 10.2702 69.3953 10.2702C67.8861 10.2702 66.7004 10.9 66.0752 11.9642V5.6875H63.0784V21.3902Z" fill="#101828"/>
<path d="M81.8099 17.6763C81.5728 18.6102 80.7751 19.088 79.5678 19.088C78.0586 19.088 77.0885 18.1324 76.8729 16.5903H84.6773C84.6988 16.3514 84.7204 16.0256 84.7204 15.613C84.7204 13.1153 83.1897 10.2702 79.3522 10.2702C75.6656 10.2702 73.984 13.1153 73.984 15.8953C73.984 18.6536 75.8812 21.5639 79.5678 21.5639C82.2411 21.5639 84.3108 20.0436 84.742 17.6763H81.8099ZM79.3522 12.4855C80.7966 12.4855 81.6375 13.4628 81.7237 14.6791H76.916C77.1747 13.1588 77.994 12.4855 79.3522 12.4855Z" fill="#101828"/>
<path d="M92.5797 12.9633V10.4439H91.0335C89.7184 10.4439 88.8992 10.9 88.3171 12.2683V10.4439H85.2988V21.3902H88.3171V16.0691C88.3171 14.2013 88.9854 12.9633 90.473 12.9633H92.5797Z" fill="#101828"/>
<path d="M102.928 10.4439H99.9098V16.4383C99.9098 17.8283 98.9827 18.8708 97.6676 18.8708C96.4388 18.8708 95.5764 17.9152 95.5764 16.5903V10.4439H92.5797V17.2636C92.5797 19.7613 94.1751 21.5639 96.6112 21.5639C98.0988 21.5639 99.3061 20.9124 99.9098 19.8699V21.3902H102.928V10.4439Z" fill="#101828"/>
<path d="M104.222 21.3902H107.218V5.6875H104.222V21.3902Z" fill="#101828"/>
<path d="M115.774 17.6763C115.537 18.6102 114.739 19.088 113.532 19.088C112.023 19.088 111.052 18.1324 110.837 16.5903H118.641C118.663 16.3514 118.684 16.0256 118.684 15.613C118.684 13.1153 117.154 10.2702 113.316 10.2702C109.63 10.2702 107.948 13.1153 107.948 15.8953C107.948 18.6536 109.845 21.5639 113.532 21.5639C116.205 21.5639 118.275 20.0436 118.706 17.6763H115.774ZM113.316 12.4855C114.761 12.4855 115.601 13.4628 115.688 14.6791H110.88C111.139 13.1588 111.958 12.4855 113.316 12.4855Z" fill="#101828"/>
<path fill-rule="evenodd" clip-rule="evenodd" d="M17.6025 27.2893C23.8401 27.2893 28.8966 22.1953 28.8966 15.9115C28.8966 9.62773 23.8401 4.53372 17.6025 4.53372C11.3649 4.53372 6.30838 9.62773 6.30838 15.9115C6.30838 22.1953 11.3649 27.2893 17.6025 27.2893ZM17.6025 29.4226C25.0096 29.4226 31.0143 23.3735 31.0143 15.9115C31.0143 8.44952 25.0096 2.40039 17.6025 2.40039C10.1954 2.40039 4.19073 8.44952 4.19073 15.9115C4.19073 23.3735 10.1954 29.4226 17.6025 29.4226Z" fill="#6927DA"/>
<path fill-rule="evenodd" clip-rule="evenodd" d="M14.3314 24.5915C16.635 23.9948 19.3106 22.4629 21.7086 20.0471C24.1067 17.6313 25.6273 14.9358 26.2196 12.6152C26.8257 10.241 26.3917 8.67428 25.5883 7.86485C24.7848 7.05542 23.2296 6.61827 20.8728 7.2288C18.5693 7.82553 15.8937 9.35741 13.4956 11.7732C11.0976 14.189 9.57694 16.8845 8.98459 19.2051C8.37856 21.5793 8.81249 23.146 9.61597 23.9555C10.4194 24.7649 11.9746 25.202 14.3314 24.5915ZM8.11857 25.4639C11.2135 28.5818 17.9684 26.832 23.206 21.5556C28.4436 16.2792 30.1806 9.47424 27.0857 6.35636C23.9907 3.23848 17.2358 4.98832 11.9982 10.2647C6.76058 15.5411 5.02361 22.3461 8.11857 25.4639Z" fill="#6927DA"/>
<path fill-rule="evenodd" clip-rule="evenodd" d="M26.2199 19.2033C25.6276 16.8827 24.107 14.1873 21.7089 11.7714C19.3109 9.35563 16.6353 7.82375 14.3317 7.22702C11.9749 6.61649 10.4197 7.05364 9.61627 7.86307C8.81279 8.6725 8.37886 10.2392 8.9849 12.6134C9.57724 14.9341 11.0979 17.6295 13.4959 20.0453C15.894 22.4611 18.5696 23.993 20.8731 24.5897C23.2299 25.2002 24.7851 24.7631 25.5886 23.9537C26.392 23.1442 26.826 21.5776 26.2199 19.2033ZM27.086 25.4622C30.1809 22.3443 28.444 15.5394 23.2063 10.2629C17.9687 4.98653 11.2138 3.2367 8.11887 6.35458C5.02391 9.47246 6.76088 16.2774 11.9985 21.5538C17.2361 26.8302 23.991 28.58 27.086 25.4622Z" fill="#6927DA"/>
</g>
</svg>
