<svg width="104" height="102" viewBox="0 0 104 102" fill="none" xmlns="http://www.w3.org/2000/svg">
<path d="M74.6096 37.9522L102 51L74.0369 64.1591M74.6096 37.9522L66.4422 41.886M74.6096 37.9522L78.2948 36.2235M30.0583 37.9522L2 51L30.9841 64.1591M30.0583 37.9522L41.4773 43.1813M30.0583 37.9522L28.1952 37.099M16.0438 18.4527L2 25.1036L16.0438 31.5346M16.0438 18.4527L66.4422 41.886M16.0438 18.4527L28.1952 12.698M66.4422 41.886L52.8964 48.4104L41.4773 43.1813M78.2948 36.2235L28.1952 12.698M78.2948 36.2235L90.9442 30.2898M28.1952 12.698L40.5458 6.84901M40.5458 6.84901L52.8964 1L64.812 6.84901M40.5458 6.84901L90.9442 30.2898M90.9442 30.2898L102 25.1036L90.9442 19.6766M30.9841 64.1591L52.8964 74.1076L74.0369 64.1591M30.9841 64.1591L2 77.6932L52.8964 101L102 77.6932L74.0369 64.1591M41.4773 43.1813L90.9442 19.6766M90.9442 19.6766L78.2948 13.4674M78.2948 13.4674L28.1952 37.099M78.2948 13.4674L64.812 6.84901M28.1952 37.099L16.0438 31.5346M16.0438 31.5346L64.812 6.84901" stroke="black"/>
</svg>
