<svg width="102" height="100" viewBox="0 0 102 100" fill="none" xmlns="http://www.w3.org/2000/svg">
<path d="M71.2303 63.7067C87.6719 63.7067 101 50.3782 101 33.9366C101 17.495 87.6719 4.1665 71.2303 4.1665C54.7887 4.1665 41.4602 17.495 41.4602 33.9366C41.4602 50.3782 54.7887 63.7067 71.2303 63.7067Z" stroke="black"/>
<path d="M50.5396 95.8903C66.9812 95.8903 80.3098 82.5618 80.3098 66.1202C80.3098 49.6786 66.9812 36.3501 50.5396 36.3501C34.0981 36.3501 20.7695 49.6786 20.7695 66.1202C20.7695 82.5618 34.0981 95.8903 50.5396 95.8903Z" stroke="black"/>
<path d="M30.7701 63.7067C47.2117 63.7067 60.5402 50.3782 60.5402 33.9366C60.5402 17.495 47.2117 4.1665 30.7701 4.1665C14.3285 4.1665 1 17.495 1 33.9366C1 50.3782 14.3285 63.7067 30.7701 63.7067Z" stroke="black"/>
<path d="M1.11621 31.7531L23.4151 53.937M5.36908 18.3048L30.7714 43.8221M14.2197 9.22436L41.6909 37.6152M44.2197 21.4083L26.5185 4.51172" stroke="black"/>
</svg>
