<svg width="100" height="102" viewBox="0 0 100 102" fill="none" xmlns="http://www.w3.org/2000/svg">
<path d="M49.674 46.0704H13.4567V101H68.1851M49.674 46.0704H68.1851V101M49.674 46.0704V33.3944M68.1851 101H95.5493V80.8793M49.674 33.3944V20.7183L95.5493 1V26.7545M49.674 33.3944H59.9356M49.674 33.3944H21.7062M4 33.3944H21.7062M76.2334 33.3944H59.9356M59.9356 33.3944V41.8451M21.7062 33.3944V41.8451M95.5493 80.8793H77.8431M95.5493 80.8793V62.167M95.5493 62.167H77.8431M95.5493 62.167V45.0644M95.5493 45.0644H77.8431M95.5493 45.0644V26.7545M95.5493 26.7545H77.8431M21.7062 56.1308H36.1932V78.666H21.7062V56.1308ZM44.2414 67.5996H59.9356V90.9396H44.2414V67.5996Z" stroke="black"/>
</svg>
