<svg width="100" height="102" viewBox="0 0 100 102" fill="none" xmlns="http://www.w3.org/2000/svg">
<path d="M70.623 72.5164H92.5492V46.2869M70.623 72.5164H62.4262V40.5492H57.918V81.1229H62.4262V77.4344H97.0574V1H3V101H60.1721V96.4918H7.30328V45.2623H40.7049V40.5492H7.30328V23.2336M70.623 72.5164V46.2869H92.5492M92.5492 46.2869V5.91803H54.0246V10.2213M7.30328 23.2336V5.91803H29.8443M7.30328 23.2336H29.8443M37.8361 5.91803H48.9016V33.377H85.582V28.6639H54.0246V22.1066M37.8361 5.91803V23.2336H29.8443M37.8361 5.91803H29.8443M29.8443 5.91803V23.2336M54.0246 22.1066H65.5V19.2377M54.0246 22.1066V10.2213M54.0246 10.2213H65.5V12.4754M65.5 12.4754C65.5 12.4754 72.6721 11.2459 72.6721 15.7541C72.6721 20.2623 65.5 19.2377 65.5 19.2377M65.5 12.4754V19.2377M35.582 58.582V83.9918H48.2869V58.582H35.582Z" stroke="black"/>
<path d="M7.30328 54.2788H29.4344V62.0657H25.9508V63.0903M7.30328 87.8854H29.4344V79.0739H25.9508V77.8444M25.9508 63.0903H16.7295V77.8444H25.9508M25.9508 63.0903V77.8444" stroke="black"/>
</svg>
