<svg width="102" height="102" viewBox="0 0 102 102" fill="none" xmlns="http://www.w3.org/2000/svg">
<path d="M8.61317 93.1811H1V101H78.1605V93.1811H71.5761M8.61317 93.1811V54.2922M8.61317 93.1811H30.4239M8.61317 54.2922L39.4774 37.4198L70.5473 54.2922M8.61317 54.2922L1 58.8189V49.9712L10.6708 44.7479M70.5473 54.2922L71.5761 93.1811M70.5473 54.2922L78.1605 58.8189V49.9712L39.4774 29.1893L21.7819 38.7467M71.5761 93.1811H48.7366M30.4239 93.1811V64.5802H48.7366V93.1811M30.4239 93.1811H48.7366M42.5638 75.0741V82.6872M10.6708 44.7479V30.2181M10.6708 44.7479L21.7819 38.7467M10.6708 30.2181H5.32099V23.8395H25.8971V30.2181H21.7819M10.6708 30.2181H21.7819M21.7819 30.2181V38.7467M61.2881 19.3128H94.6214M94.6214 10.8765H73.6337M71.5761 10.8765H67.2551M64.786 10.8765H61.2881M54.4979 27.5432V1H100.794V27.5432H82.893L71.5761 40.9177V27.5432H54.4979Z" stroke="black"/>
</svg>
