<svg width="101" height="100" viewBox="0 0 101 100" fill="none" xmlns="http://www.w3.org/2000/svg">
<path d="M1 98.6425C1.15802 98.6162 3.14591 98.5968 6.50098 98.5832M99.8212 98.6402C100.219 98.6409 100.612 98.6417 101 98.6425L99.8212 98.6402ZM99.8212 98.6402C96.4425 98.6335 92.7422 98.6267 88.8193 98.6199M99.8212 98.6402V66.0295H93.9273M58.3674 98.5758V66.0295H93.9273M58.3674 98.5758C37.1081 98.5517 16.1502 98.5439 6.50098 98.5832M58.3674 98.5758C62.2434 98.5802 66.1294 98.5852 69.9587 98.5905M6.50098 98.5832V29.2908H16.1277M93.9273 66.0295V29.2908H87.0511M16.1277 29.2908V10.0373L33.4165 1V29.2908M16.1277 29.2908H33.4165M33.4165 29.2908H48.7407M48.7407 29.2908V1L87.0511 10.0373V29.2908M48.7407 29.2908H87.0511M69.9587 98.5905V78.9961H79.389M69.9587 98.5905C73.1546 98.5949 76.3109 98.5995 79.389 98.6043M88.8193 98.6199V78.9961H79.389M88.8193 98.6199C85.7931 98.6146 82.6346 98.6094 79.389 98.6043M79.389 98.6043V78.9961M16.1277 38.3281V47.169M16.1277 52.4735V61.3143M16.1277 67.7976V76.2456M16.1277 83.1218V92.1591M29.2908 38.3281V47.169M29.2908 52.4735V61.3143M29.2908 67.7976V76.2456M29.2908 83.1218V92.1591M42.2574 38.3281V47.169M42.2574 52.4735V61.3143M42.2574 67.7976V76.2456M42.2574 83.1218V92.1591M55.0275 38.3281V47.169M55.0275 52.4735V61.3143M66.2259 38.3281V47.169M66.2259 52.4735V61.3143M76.6385 38.3281V47.169M76.6385 52.4735V61.3143M85.6758 38.3281V47.169M85.6758 52.4735V61.3143" stroke="black"/>
</svg>
