<svg width="22" height="22" viewBox="0 0 22 22" fill="none" xmlns="http://www.w3.org/2000/svg">
<path d="M6.23242 8.26L6.24242 8.24889" stroke="white" stroke-linecap="round" stroke-linejoin="round"/>
<path d="M10.2656 8.26L10.2756 8.24889" stroke="white" stroke-linecap="round" stroke-linejoin="round"/>
<path d="M6.23242 12.2937L6.24242 12.2826" stroke="white" stroke-linecap="round" stroke-linejoin="round"/>
<path d="M10.2656 12.2937L10.2756 12.2826" stroke="white" stroke-linecap="round" stroke-linejoin="round"/>
<path d="M6.23242 16.3264L6.24242 16.3153" stroke="white" stroke-linecap="round" stroke-linejoin="round"/>
<path d="M10.2656 16.3264L10.2756 16.3153" stroke="white" stroke-linecap="round" stroke-linejoin="round"/>
<path d="M14.2996 20.3496H2.79961C2.46824 20.3496 2.19961 20.081 2.19961 19.7496V4.81627C2.19961 4.4849 2.46824 4.21627 2.79961 4.21627H8.24961V2.79961C8.24961 2.46824 8.51824 2.19961 8.84961 2.19961H13.6996C14.031 2.19961 14.2996 2.46824 14.2996 2.79961V8.24961M14.2996 20.3496H19.7496C20.081 20.3496 20.3496 20.081 20.3496 19.7496V8.84961C20.3496 8.51824 20.081 8.24961 19.7496 8.24961H14.2996M14.2996 20.3496V16.3163M14.2996 8.24961V12.2829M14.2996 12.2829H16.3163M14.2996 12.2829V16.3163M14.2996 16.3163H16.3163" stroke="white" stroke-linecap="round" stroke-linejoin="round"/>
</svg>
