<svg id="Layer_1" data-name="Layer 1" xmlns="http://www.w3.org/2000/svg" viewBox="0 0 300 80"><defs><style>.cls-1{fill:#0d0d0d;}</style></defs><title>logo</title><path class="cls-1" d="M21.57,67.09H60V77.76H3.12L50.33,3.1H61.79ZM38.42,13.76H4.9V3.1H45.29Z"/><path class="cls-1" d="M100.58,2.34V13a27.56,27.56,0,0,0,0,54.78v10.7a38.21,38.21,0,0,1,0-76.18Zm41.26,38.09a38.22,38.22,0,0,1-35.17,38.09V67.82a27.56,27.56,0,0,0,0-54.78V2.34A38.21,38.21,0,0,1,141.84,40.43Z"/><path class="cls-1" d="M217,3.1V79.54L154.8,16V1.32l51.55,52.89V3.1ZM154.8,25l10.67,10.73v42H154.8Z"/><path class="cls-1" d="M298.15,77.76H286.59l-7.22-16h0L262.59,24.87,245.85,61.76h0l-7.23,16H227L262.59,1.32Z"/></svg>